<svg id="e4VpAdgHkWK1" xmlns="http://www.w3.org/2000/svg" xmlns:xlink="http://www.w3.org/1999/xlink" viewBox="0 0 1000 1000" shape-rendering="geometricPrecision" text-rendering="geometricPrecision" project-id="90bfe20118494b2693cb6ff81b8d4753" export-id="58b78cda7d4a407eaa446a20dd17b354" cached="false"><g transform="matrix(2.081335 0 0 2.081335 -516.405732 -802.974081)"><path d="M491.403525,407.505019l-.480217,66.269881l29.773425,39.862005q-28.332777,36.492423-27.85256,36.492423t20.459673,37.257899l14.39513,1.244024l10.663061-12.617954q11.729365-3.0212,11.729365-3.198918t21.295347-42.310435l-13.96951-38.078182l25.846344-35.197088-3.956501-26.211814q-46.231733-29.473915-87.903557-23.511841Z" transform="translate(0.000008 0)" fill="#fff" stroke="#fff" stroke-width="2" stroke-linecap="round"/><path d="M643.042058,521.074487q-.22027,0-19.824318,35.022963L611.763689,567.5515l-5.066216,5.262878h-16.740537l-1.541891-5.703419q-25.991886-.66081-26.212156-.66081t17.104197-31.27837v-9.912159l-7.920333-32.833859l39.055311-35.197089q26.652702,34.790976,32.599994,63.845815Z" transform="translate(0.000004 0.000002)" fill="#fff" stroke="#fff" stroke-width="2"/><path d="" fill="none" stroke="#3f5787" stroke-width="2"/><path d="M491.403533,572.814379l17.840264,22.989352l11.452943,5.092972-3.78701,26.809255l21.452312-7.822172q9.210749,6.745499,9.297839,6.745499c.08709,0,11.234509-.261268,11.321598-.261268q.087089,0,14.177884,18.257147.870263,22.502524.870263,22.253878t35.490212,19.040608l7.571491,64.798255c-22.660897,47.244299-82.455424,98.977296-123.846138,94.57342l-1.572206-18.866462l11.005437-22.010873q-10.43438-23.993067-10.600077-23.725829c-1.4728,2.375352-30.774048-4.050289-33.73611-7.089393-.380783-.390687.060015-3.226396.628882-8.804349c24.843103,7.802685,64.671444,1.905229,78.606123-14.5319-4.557424-2.341507-23.630423-2.410672-36.156582-2.762358l-12.577642,2.201088-13.835406-2.515529c-25.013815-1.251957-38.733592,1.192538-41.820658,1.886647-.839208.188691.176224-1.339284,2.515528-4.716616c22.33051-5.589558,16.104564-3.526508,31.034477-12.93644c3.019617-1.903185,6.432454-1.847447,16.131679,2.874327c3.112911,2.798562,8.458409,4.634426,10.690996.943323l-1.824437-28.426029-7.250698-.674484c-10.10749-5.2916-15.897671-8.589966-17.873814-7.925182-1.44837.487239-5.67803.722318-12.140704.505863-2.843735-1.115212-6.711782-4.409167-7.756561-6.576215-.521499-7.997499,1.13296-19.231168,6.744835-19.560023-.861425,5.809305-1.158648,14.353448,2.866555,14.838639c2.134161.753986,8.819961.74839,12.983809.505862c2.922325,1.311987,9.872853,4.624809,13.826913,6.576215c3.795244,1.906277,8.728355.849795,10.117253-1.686209q-1.727566-119.993762-1.84925-120.001019Z" transform="translate(0.000004 0.000002)" fill="#fff" stroke="#fff" stroke-width="2" stroke-linecap="round"/><path d="M361.877844,566.781926c56.674912-25.643454,115.157348-.203028,100.613868,83.459396l6.1679.385494c6.842203-24.736972,7.877524-67.990749-15.805244-90.976524-21.912599-19.783334-69.309641-17.615377-94.638714.192746l3.66219,6.938888Z" fill="#fff" stroke="#fff" stroke-width="2"/><path d="M631.536364,720.784201q-.246037-.492075-11.071691-14.024142l-3.19849-31.000737-33.461114-13.778107l1.9683-25.833947q-8.857355-11.809805-8.611317-11.809805c.246038,0,15.254331-4.674715,15.746406-5.16679s8.508613-12.237555,8.508613-12.393066q0-.155511,9.952728-9.175171l-2.33267-13.685003l15.706649-21.30506l7.153524-13.685001q13.996025,2.021647,14.151536,2.021647c.155511,0,12.164788,103.384137-14.512474,169.835182Z" transform="translate(0.000004 0.000006)" fill="#fff" stroke="#fff" stroke-width="2"/><path d="M474.902261,421.725189q0,.177247-.354494-14.534265c-47.622839-1.143056-115.571133,37.882365-131.192653,87.077314-25.258548,75.289097-14.666981,158.451561-3.617926,204.314535c42.131033,112.945928,102.355057,143.753359,136.79544,145.899681l-.330822-14.887021c-72.371675-9.983634-104.466162-82.464638-122.021332-130.740938-15.795039-58.787563-16.752992-159.193784,1.933469-199.194082c12.351387-54.055449,87.490633-78.980728,118.788318-77.935224Z" transform="translate(0.000002 0.000001)" fill="#fff" stroke="#fff" stroke-width="2"/><path d="M367.790089,593.236194c15.781801-12.23244,37.082572-15.216283,55.634854-9.384192c8.289448,2.605869,22.312841,12.776113,24.46593,24.968655-20.625895,7.464998-42.678848,6.459805-51.948207,5.027246-7.764199-1.19994-34.049152-21.840278-28.152577-20.611709Z" transform="translate(0 0.000002)" fill="#fff" stroke="#fff" stroke-width="2"/></g></svg>
